PathFileType	3	(X/Y/Z)	E:\ViconData\BIOM9541 2025\Week 7\Wed1100\Hanif 90 squat 7-5 Squat 01.trc
DataRate	CameraRate	NumFrames	NumMarkers	Units	OrigDataRate	OrigDataStartFrame	OrigNumFrames
200.0	200.0	18	19	mm	200.0	623	1661	
Frame#	Time	C7			CLAV			RBAK			LASI			RASI			LPSI			RPSI			LTHI			LKNE			LTIB			LANK			LHEE			LTOE			RTHI			RKNE			RTIB			RANK			RHEE			RTOE			
		X1	Y1	Z1	X2	Y2	Z2	X3	Y3	Z3	X4	Y4	Z4	X5	Y5	Z5	X6	Y6	Z6	X7	Y7	Z7	X8	Y8	Z8	X9	Y9	Z9	X10	Y10	Z10	X11	Y11	Z11	X12	Y12	Z12	X13	Y13	Z13	X14	Y14	Z14	X15	Y15	Z15	X16	Y16	Z16	X17	Y17	Z17	X18	Y18	Z18	X19	Y19	Z19	
623	3.11	315.02698	1316.6425	-1217.4199	165.01985	1251.5526	-1204.9891	324.18433	1232.9934	-1367.1923	182.0097	881.33331	-1079.3062	172.38501	890.43219	-1340.8809	349.09818	941.88379	-1169.9395	347.5538	939.09467	-1244.3412	231.47083	562.36346	-991.50085	239.14081	422.33972	-991.30347	283.50592	222.43257	-962.65289	308.62399	65.177467	-972.49628	329.2363	50.14362	-1031.5525	162.84352	38.629063	-947.05872	233.58781	734.34247	-1409.7587	263.86011	422.62045	-1417.8485	281.55133	335.57028	-1438.5052	303.69977	74.915863	-1428.7009	322.47635	50.222469	-1363.4974	161.85049	40.082951	-1464.7148
624	3.115	314.80093	1316.5598	-1217.4463	164.90721	1251.3254	-1205.1147	324.07266	1232.9626	-1367.2175	182.65201	881.03729	-1079.3419	172.85609	890.38922	-1340.9199	349.64163	941.789	-1169.9072	348.08667	939.16522	-1244.2946	230.80914	562.40967	-990.87494	237.94182	422.32611	-990.51471	282.86035	222.46353	-962.23767	308.504	65.232254	-972.45374	329.39474	50.30888	-1031.7006	162.81712	38.660538	-947.07733	233.87035	734.38	-1409.8862	263.20096	422.56348	-1418.3116	280.98627	335.45938	-1438.9146	303.61356	74.883949	-1428.7963	322.4874	50.246967	-1363.579	161.84785	40.108429	-1464.7179
625	3.12	314.61697	1316.4879	-1217.5122	164.79022	1250.942	-1205.5027	323.95514	1232.8739	-1367.2341	183.30698	880.79456	-1079.3978	173.36504	890.22632	-1340.8712	350.26132	941.7077	-1170.0093	348.64978	939.01349	-1244.3783	230.1174	562.52277	-990.26807	236.66592	422.33521	-989.66162	282.22366	222.42177	-961.90698	308.43246	65.26709	-972.43665	329.32245	50.325878	-1031.6333	162.84731	38.679626	-947.14728	234.20213	734.34235	-1410.0071	262.50424	422.39749	-1418.793	280.38449	335.31122	-1439.3109	303.5647	74.798607	-1428.8995	322.51761	50.283691	-1363.6614	161.85518	40.057297	-1464.672
626	3.125	314.42343	1316.4119	-1217.5466	164.64891	1250.6924	-1205.4955	323.83209	1232.7566	-1367.2421	183.9633	880.58661	-1079.3895	173.87302	890.12811	-1340.8792	350.83841	941.63818	-1170.1295	349.21396	938.92462	-1244.389	229.39384	562.67163	-989.67554	235.29233	422.32266	-988.81104	281.48535	222.3047	-961.52667	308.32162	65.316414	-972.42969	329.11597	50.383934	-1031.5544	162.85974	38.679737	-947.18341	234.51125	734.40588	-1410.1663	261.79056	422.27136	-1419.2939	279.72339	335.12704	-1439.6904	303.48538	74.731987	-1429.0127	322.54706	50.200775	-1363.7649	161.86629	40.065845	-1464.6536
627	3.13	314.20728	1316.2593	-1217.5472	164.56166	1250.2708	-1205.5636	323.67401	1232.6208	-1367.2336	184.76079	880.22504	-1079.4323	174.38493	889.96497	-1340.8181	351.4342	941.51471	-1169.9761	349.6951	938.72003	-1244.3932	228.63008	562.73425	-989.14758	233.97156	422.3067	-987.93707	280.79126	222.17378	-961.14343	308.17523	65.346161	-972.36145	329.00327	50.526215	-1031.551	162.81046	38.685715	-947.18719	234.80409	734.43835	-1410.33	261.0459	422.22086	-1419.8749	279.06442	335.0701	-1440.0992	303.40222	74.714912	-1429.101	322.59735	50.146477	-1363.792	161.86771	40.147617	-1464.6187
628	3.135	314.00815	1316.0917	-1217.5372	164.49524	1249.8949	-1205.4386	323.5376	1232.4529	-1367.2189	185.52257	879.78351	-1079.4641	174.8756	889.85193	-1340.7633	352.03592	941.45624	-1169.7943	350.14398	938.31189	-1244.3911	227.85066	562.74304	-988.68182	232.52631	422.17126	-987.0484	280.04593	222.00299	-960.771	308.02664	65.350349	-972.29187	328.94299	50.729076	-1031.5548	162.82025	38.707691	-947.19427	235.13643	734.53406	-1410.526	260.24857	422.23157	-1420.4512	278.33597	334.98923	-1440.5377	303.35632	74.746361	-1429.2057	322.63159	50.066448	-1363.7246	161.89232	40.271172	-1464.5709
629	3.14	313.80475	1315.9412	-1217.5171	164.41574	1249.5074	-1205.2073	323.41989	1232.2568	-1367.2126	186.34225	879.40491	-1079.4418	175.44106	889.71637	-1340.7195	352.65067	941.29205	-1169.546	350.58145	937.91888	-1244.373	226.97685	562.94495	-988.11346	231.07404	422.22211	-986.00745	279.30499	221.80641	-960.38531	307.86322	65.375053	-972.25574	328.91159	50.889233	-1031.6328	162.80133	38.72805	-947.2149	235.37453	734.37823	-1410.761	259.4006	422.19891	-1421.0563	277.60129	334.89548	-1440.9938	303.33432	74.747055	-1429.2892	322.6882	49.962814	-1363.7147	161.94362	40.363598	-1464.5437
630	3.145	313.63412	1315.7375	-1217.5135	164.31931	1249.0834	-1205.2151	323.30856	1231.9729	-1367.2079	187.16672	879.08264	-1079.4031	175.97421	889.4942	-1340.636	353.3407	941.07745	-1169.7596	351.34186	938.04718	-1244.4673	226.09683	563.17963	-987.56769	229.50505	422.34631	-984.91284	278.44559	221.74976	-959.91681	307.74295	65.456581	-972.27588	328.742	50.957481	-1031.6705	162.79012	38.78413	-947.31165	235.94299	734.5332	-1410.9303	258.49222	422.02365	-1421.7255	276.80872	334.7052	-1441.4882	303.33771	74.62159	-1429.3737	322.73105	49.748302	-1363.8567	161.97813	40.324532	-1464.5074
631	3.15	313.42548	1315.3912	-1217.5427	164.47411	1248.589	-1203.7343	323.62289	1231.8787	-1367.3842	188.04323	878.7453	-1079.2957	176.56279	889.04712	-1340.5444	354.09686	940.75391	-1170.2687	351.99451	938.00842	-1244.5941	225.17114	563.55298	-986.96704	227.95892	422.53275	-983.73065	277.60226	221.72981	-959.44763	307.63962	65.523987	-972.3645	328.54623	50.980885	-1031.7583	162.7103	38.841679	-947.36383	236.10068	734.17657	-1411.1151	257.5231	421.65408	-1422.3871	276.0127	334.34067	-1442.1006	303.30374	74.393799	-1429.4545	322.83548	49.65197	-1364.1331	161.99168	40.223919	-1464.4636
632	3.155	313.21875	1315.0396	-1217.5835	164.1371	1248.0597	-1205.2029	323.13474	1231.389	-1367.1888	188.95465	878.30811	-1079.2913	177.10953	888.69403	-1340.4927	354.79724	940.50336	-1170.4457	352.69788	937.94238	-1244.7245	224.21332	563.95337	-986.35767	226.40521	422.78339	-982.54718	276.78323	221.72923	-958.91528	307.47449	65.656494	-972.43365	328.30368	51.042877	-1031.8367	162.61949	38.867294	-947.41022	236.64546	734.22546	-1411.3301	256.39792	421.33163	-1423.089	275.03329	333.9986	-1442.6825	303.16544	74.202309	-1429.6139	322.86697	49.61528	-1364.3141	161.94771	40.189701	-1464.4597
633	3.16	313.03366	1314.6536	-1217.6107	164.06488	1247.4756	-1205.2075	322.96564	1230.9834	-1367.1818	189.89244	877.88806	-1079.137	177.67615	888.29102	-1340.3967	355.51126	940.23816	-1170.3478	353.34793	937.74176	-1244.8494	223.26166	564.17047	-985.78571	224.81813	422.94586	-981.34631	275.98434	221.63409	-958.41632	307.25467	65.750038	-972.40729	328.00256	51.163509	-1031.8712	162.58028	38.835121	-947.43756	237.03848	734.09985	-1411.594	255.24115	421.18045	-1423.858	273.9827	333.81711	-1443.3057	302.97208	74.186852	-1429.7651	322.83746	49.654377	-1364.3789	161.87653	40.207207	-1464.4308
634	3.165	312.84296	1314.2317	-1217.5908	164.2394	1246.6989	-1203.701	322.83563	1230.5569	-1367.163	190.87292	877.2641	-1079.1	178.2849	887.82001	-1340.2701	356.20041	940.04718	-1170.2041	353.92953	937.39362	-1244.8844	222.2717	564.30219	-985.22131	223.26628	422.98828	-980.18237	275.15961	221.5778	-957.80676	307.01917	65.848427	-972.27704	327.76984	51.354	-1031.8824	162.55151	38.804485	-947.4646	237.29926	733.76233	-1411.7664	253.98749	421.02927	-1424.656	272.88779	333.60419	-1443.9233	302.78891	74.136169	-1429.9391	322.79572	49.721943	-1364.3541	161.83524	40.27972	-1464.4019
635	3.17	312.65576	1313.6907	-1217.5526	163.94023	1245.9385	-1205.1222	322.73264	1230.0387	-1367.0914	191.86508	876.64856	-1079.0109	178.91219	887.2785	-1340.1028	356.9787	939.76868	-1170.125	354.52481	936.96295	-1244.907	221.29027	564.47498	-984.68512	221.75465	423.14038	-978.97809	274.40094	221.44426	-957.33435	306.76624	65.935936	-972.14874	327.63483	51.505096	-1031.931	162.52496	38.729115	-947.45416	237.65808	733.59857	-1411.9146	252.76402	420.82944	-1425.4648	271.76187	333.31873	-1444.5416	302.80966	74.312813	-1430.2494	323.19391	50.08234	-1364.7039	161.81142	40.242359	-1464.3599
636	3.175	312.49768	1313.1353	-1217.4675	164.12843	1245.1278	-1203.5828	322.63556	1229.3777	-1366.9984	192.85951	875.88446	-1078.9924	179.59877	886.62592	-1339.9587	357.81094	939.39209	-1170.2921	355.35849	936.77838	-1244.9961	220.28583	564.4931	-984.14948	220.27736	423.17249	-977.79443	273.66089	221.35063	-956.86481	306.58261	65.975662	-972.22607	327.48495	51.581398	-1031.9961	162.47339	38.690552	-947.45734	238.05707	733.39764	-1412.157	251.49033	420.51419	-1426.3064	270.638	333.04953	-1445.2373	302.70941	74.248787	-1430.4485	323.22543	50.087776	-1364.8859	161.81192	40.153473	-1464.3115
637	3.18	312.35211	1312.6156	-1217.4749	164.05264	1244.3414	-1203.5026	322.61823	1228.8835	-1366.9464	193.84581	875.2536	-1078.8712	180.25987	886.01099	-1339.8066	358.64072	938.84595	-1170.3336	356.06421	936.44794	-1244.955	219.31546	564.54352	-983.50903	218.80042	423.32993	-976.43994	272.92078	221.33542	-956.34332	306.41879	66.041924	-972.34521	327.298	51.663719	-1032.1068	162.42311	38.675407	-947.51379	238.5374	733.48407	-1412.5422	250.16368	420.22122	-1427.2058	269.42563	332.77411	-1445.9899	302.59943	74.161453	-1430.6621	323.29425	50.104961	-1365.134	161.81621	40.120403	-1464.2731
638	3.185	312.15192	1312.1342	-1217.359	164.0074	1243.5366	-1203.3566	322.53607	1228.3776	-1366.8071	194.88724	874.43677	-1078.7594	180.89987	885.45648	-1339.6483	359.5188	938.3114	-1170.4415	356.86865	936.02307	-1245.0356	218.37115	564.5191	-982.79578	217.34882	423.31686	-975.11157	272.17612	221.24643	-955.89288	306.25351	66.088188	-972.49261	327.07605	51.80748	-1032.3379	162.30537	38.730713	-947.54065	238.91074	733.38361	-1412.7981	248.75777	419.99338	-1428.1555	268.2576	332.60422	-1446.8214	302.47122	74.11277	-1430.89	323.32938	50.116539	-1365.2694	161.81752	40.112423	-1464.2555
639	3.19	311.96432	1311.5939	-1217.2313	163.95154	1242.7144	-1203.1949	322.43634	1227.7264	-1366.6899	195.87888	873.50403	-1078.7211	181.63802	884.80695	-1339.4934	360.39941	937.75793	-1170.6489	357.71069	935.67767	-1245.0845	217.50864	564.52539	-981.94342	215.90437	423.32181	-973.76776	271.4093	221.10942	-955.45789	306.08231	66.243904	-972.57355	326.75598	51.950943	-1032.5403	162.20244	38.81815	-947.55756	239.22174	733.3587	-1413.0269	247.3476	419.87808	-1429.2012	266.97803	332.46024	-1447.6857	302.33633	74.086853	-1431.0967	323.38654	50.175217	-1365.4485	161.82231	40.167278	-1464.2883
640	3.195	311.80191	1311.0406	-1217.1282	163.93405	1241.8549	-1203.0145	322.41846	1227.1703	-1366.5674	196.93753	872.65588	-1078.5358	182.37025	884.21454	-1339.3296	361.28513	937.10114	-1170.6803	358.52542	935.34363	-1245.0216	216.76555	564.56036	-981.01099	214.48524	423.32767	-972.42578	270.75659	221.04868	-955.01581	305.89526	66.274857	-972.75928	326.49481	52.091461	-1032.7712	162.10429	38.86042	-947.5993	239.51132	732.9574	-1413.119	245.88084	419.7254	-1430.2623	265.71942	332.3078	-1448.5576	302.1795	74.083305	-1431.3212	323.39133	50.247871	-1365.6204	161.83571	40.216312	-1464.3004
